<svg xmlns="http://www.w3.org/2000/svg" xmlns:xlink="http://www.w3.org/1999/xlink" width="500" zoomAndPan="magnify" viewBox="0 0 375 374.999991" height="500" preserveAspectRatio="xMidYMid meet" version="1.0"><defs><g/><clipPath id="id1"><path d="M 37.5 37.5 L 336.917969 37.5 L 336.917969 336.917969 L 37.5 336.917969 Z M 37.5 37.5 " clip-rule="nonzero"/></clipPath><clipPath id="id2"><path d="M 45.539062 45.539062 L 328.722656 45.539062 L 328.722656 328.722656 L 45.539062 328.722656 Z M 45.539062 45.539062 " clip-rule="nonzero"/></clipPath><clipPath id="id3"><path d="M 144.871094 116 L 175 116 L 175 160 L 144.871094 160 Z M 144.871094 116 " clip-rule="nonzero"/></clipPath><clipPath id="id4"><path d="M 200 116 L 230.371094 116 L 230.371094 160 L 200 160 Z M 200 116 " clip-rule="nonzero"/></clipPath><clipPath id="id5"><path d="M 172 105.265625 L 203 105.265625 L 203 171.265625 L 172 171.265625 Z M 172 105.265625 " clip-rule="nonzero"/></clipPath></defs><g clip-path="url(#id1)"><path fill="#26f7b2" d="M 187.207031 37.5 C 104.527344 37.5 37.5 104.527344 37.5 187.207031 C 37.5 269.890625 104.527344 336.917969 187.207031 336.917969 C 269.890625 336.917969 336.917969 269.890625 336.917969 187.207031 C 336.917969 104.527344 269.890625 37.5 187.207031 37.5 " fill-opacity="1" fill-rule="nonzero"/></g><g clip-path="url(#id2)"><path fill="#050a30" d="M 187.132812 45.539062 C 108.933594 45.539062 45.539062 108.933594 45.539062 187.132812 C 45.539062 265.332031 108.933594 328.722656 187.132812 328.722656 C 265.332031 328.722656 328.722656 265.332031 328.722656 187.132812 C 328.722656 108.933594 265.332031 45.539062 187.132812 45.539062 " fill-opacity="1" fill-rule="nonzero"/></g><path fill="#d3edea" d="M 171.84375 159.074219 C 171.371094 159.074219 170.90625 158.917969 170.535156 158.625 L 146.625 139.917969 C 146.109375 139.515625 145.816406 138.914062 145.816406 138.265625 C 145.816406 137.613281 146.109375 137.011719 146.621094 136.605469 L 170.535156 117.902344 C 170.90625 117.609375 171.371094 117.453125 171.84375 117.453125 C 172.5 117.453125 173.109375 117.742188 173.507812 118.253906 C 173.859375 118.695312 174.015625 119.25 173.949219 119.804688 C 173.882812 120.363281 173.597656 120.863281 173.15625 121.210938 L 151.363281 138.265625 L 173.15625 155.3125 C 173.597656 155.664062 173.882812 156.164062 173.949219 156.71875 C 174.015625 157.277344 173.859375 157.828125 173.507812 158.273438 C 173.109375 158.78125 172.5 159.074219 171.84375 159.074219 " fill-opacity="1" fill-rule="nonzero"/><g clip-path="url(#id3)"><path fill="#009d9a" d="M 171.84375 116.554688 C 171.171875 116.554688 170.511719 116.78125 169.980469 117.199219 L 146.066406 135.902344 C 145.332031 136.480469 144.914062 137.339844 144.914062 138.265625 C 144.914062 139.1875 145.335938 140.050781 146.066406 140.625 L 169.980469 159.328125 C 170.507812 159.742188 171.171875 159.972656 171.84375 159.972656 C 172.78125 159.972656 173.644531 159.550781 174.21875 158.824219 C 174.71875 158.195312 174.941406 157.410156 174.847656 156.613281 C 174.75 155.820312 174.347656 155.105469 173.714844 154.609375 L 152.820312 138.265625 L 173.714844 121.917969 C 174.347656 121.417969 174.75 120.710938 174.847656 119.914062 C 174.941406 119.117188 174.71875 118.332031 174.21875 117.699219 C 173.644531 116.972656 172.777344 116.554688 171.84375 116.554688 Z M 171.84375 118.347656 C 172.207031 118.347656 172.5625 118.507812 172.800781 118.808594 C 173.21875 119.335938 173.125 120.097656 172.597656 120.507812 L 149.902344 138.265625 L 172.597656 156.019531 C 173.125 156.433594 173.21875 157.191406 172.800781 157.714844 C 172.5625 158.019531 172.207031 158.179688 171.84375 158.179688 C 171.582031 158.179688 171.320312 158.097656 171.09375 157.921875 L 147.179688 139.214844 C 146.890625 138.984375 146.71875 138.632812 146.71875 138.265625 C 146.71875 137.890625 146.890625 137.542969 147.179688 137.3125 L 171.09375 118.605469 C 171.316406 118.429688 171.582031 118.347656 171.84375 118.347656 " fill-opacity="1" fill-rule="nonzero"/></g><path fill="#d3edea" d="M 203.398438 159.074219 C 202.742188 159.074219 202.136719 158.78125 201.730469 158.273438 C 201.007812 157.359375 201.167969 156.035156 202.085938 155.3125 L 223.882812 138.265625 L 202.085938 121.210938 C 201.167969 120.492188 201.007812 119.167969 201.730469 118.253906 C 202.136719 117.742188 202.742188 117.453125 203.398438 117.453125 C 203.871094 117.453125 204.335938 117.609375 204.707031 117.902344 L 228.621094 136.605469 C 229.132812 137.011719 229.425781 137.613281 229.425781 138.265625 C 229.425781 138.914062 229.132812 139.515625 228.617188 139.917969 L 204.707031 158.625 C 204.335938 158.917969 203.871094 159.074219 203.398438 159.074219 " fill-opacity="1" fill-rule="nonzero"/><g clip-path="url(#id4)"><path fill="#009d9a" d="M 203.398438 116.554688 C 202.464844 116.554688 201.601562 116.972656 201.023438 117.699219 C 199.992188 119 200.21875 120.890625 201.527344 121.917969 L 222.421875 138.265625 L 201.527344 154.609375 C 200.21875 155.632812 199.992188 157.527344 201.023438 158.824219 C 201.601562 159.550781 202.464844 159.972656 203.398438 159.972656 C 204.070312 159.972656 204.730469 159.742188 205.261719 159.328125 L 229.175781 140.625 C 229.910156 140.050781 230.328125 139.1875 230.328125 138.265625 C 230.328125 137.339844 229.910156 136.480469 229.179688 135.902344 L 205.265625 117.199219 C 204.734375 116.78125 204.070312 116.554688 203.398438 116.554688 Z M 203.398438 118.347656 C 203.660156 118.347656 203.925781 118.429688 204.148438 118.605469 L 228.0625 137.3125 C 228.355469 137.542969 228.523438 137.890625 228.523438 138.265625 C 228.523438 138.632812 228.355469 138.984375 228.0625 139.214844 L 204.148438 157.921875 C 203.925781 158.097656 203.660156 158.179688 203.398438 158.179688 C 203.035156 158.179688 202.679688 158.019531 202.441406 157.714844 C 202.027344 157.191406 202.117188 156.433594 202.644531 156.019531 L 225.339844 138.265625 L 202.644531 120.507812 C 202.117188 120.097656 202.027344 119.335938 202.441406 118.808594 C 202.679688 118.507812 203.039062 118.347656 203.398438 118.347656 " fill-opacity="1" fill-rule="nonzero"/></g><path fill="#d3edea" d="M 175.738281 170.363281 C 175.472656 170.363281 175.21875 170.3125 174.972656 170.21875 C 174.445312 170.015625 174.027344 169.621094 173.800781 169.109375 C 173.570312 168.589844 173.558594 168.019531 173.761719 167.496094 L 197.117188 107.507812 C 197.429688 106.707031 198.222656 106.164062 199.089844 106.164062 C 199.351562 106.164062 199.613281 106.214844 199.859375 106.308594 C 200.945312 106.726562 201.488281 107.949219 201.066406 109.035156 L 177.714844 169.019531 C 177.402344 169.820312 176.605469 170.363281 175.738281 170.363281 " fill-opacity="1" fill-rule="nonzero"/><g clip-path="url(#id5)"><path fill="#009d9a" d="M 199.089844 105.265625 C 197.851562 105.265625 196.71875 106.042969 196.277344 107.1875 L 172.921875 167.171875 C 172.632812 167.921875 172.648438 168.734375 172.972656 169.46875 C 173.300781 170.203125 173.894531 170.769531 174.648438 171.054688 C 175 171.191406 175.363281 171.261719 175.738281 171.261719 C 176.976562 171.261719 178.109375 170.488281 178.554688 169.339844 L 201.90625 109.355469 C 202.507812 107.8125 201.734375 106.066406 200.179688 105.472656 C 199.832031 105.335938 199.464844 105.265625 199.089844 105.265625 Z M 199.089844 107.0625 C 199.238281 107.0625 199.386719 107.089844 199.53125 107.144531 C 200.15625 107.382812 200.46875 108.082031 200.226562 108.707031 L 176.871094 168.691406 C 176.6875 169.171875 176.226562 169.464844 175.738281 169.464844 C 175.589844 169.464844 175.441406 169.441406 175.296875 169.382812 C 174.667969 169.144531 174.359375 168.441406 174.605469 167.820312 L 197.957031 107.835938 C 198.144531 107.355469 198.601562 107.0625 199.089844 107.0625 " fill-opacity="1" fill-rule="nonzero"/></g><g fill="#f7f7f7" fill-opacity="1"><g transform="translate(73.340233, 202.805099)"><g><path d="M 9.15625 0.203125 C 6.78125 0.203125 4.820312 -0.351562 3.28125 -1.46875 C 1.75 -2.582031 0.914062 -4.210938 0.78125 -6.359375 L 7.390625 -6.359375 C 7.484375 -5.210938 7.988281 -4.640625 8.90625 -4.640625 C 9.238281 -4.640625 9.519531 -4.71875 9.75 -4.875 C 9.988281 -5.039062 10.109375 -5.289062 10.109375 -5.625 C 10.109375 -6.09375 9.851562 -6.472656 9.34375 -6.765625 C 8.84375 -7.054688 8.0625 -7.382812 7 -7.75 C 5.726562 -8.195312 4.675781 -8.632812 3.84375 -9.0625 C 3.019531 -9.5 2.304688 -10.128906 1.703125 -10.953125 C 1.109375 -11.773438 0.820312 -12.828125 0.84375 -14.109375 C 0.84375 -15.398438 1.171875 -16.5 1.828125 -17.40625 C 2.492188 -18.3125 3.398438 -18.992188 4.546875 -19.453125 C 5.691406 -19.921875 6.984375 -20.15625 8.421875 -20.15625 C 10.847656 -20.15625 12.773438 -19.59375 14.203125 -18.46875 C 15.640625 -17.351562 16.394531 -15.78125 16.46875 -13.75 L 9.765625 -13.75 C 9.753906 -14.3125 9.613281 -14.710938 9.34375 -14.953125 C 9.082031 -15.191406 8.769531 -15.3125 8.40625 -15.3125 C 8.144531 -15.3125 7.925781 -15.222656 7.75 -15.046875 C 7.582031 -14.867188 7.5 -14.625 7.5 -14.3125 C 7.5 -13.863281 7.742188 -13.492188 8.234375 -13.203125 C 8.734375 -12.910156 9.523438 -12.5625 10.609375 -12.15625 C 11.859375 -11.6875 12.890625 -11.234375 13.703125 -10.796875 C 14.515625 -10.367188 15.21875 -9.773438 15.8125 -9.015625 C 16.414062 -8.253906 16.71875 -7.289062 16.71875 -6.125 C 16.71875 -4.914062 16.414062 -3.828125 15.8125 -2.859375 C 15.21875 -1.898438 14.351562 -1.148438 13.21875 -0.609375 C 12.082031 -0.0664062 10.726562 0.203125 9.15625 0.203125 Z M 9.15625 0.203125 "/></g></g></g><g fill="#f7f7f7" fill-opacity="1"><g transform="translate(93.077848, 202.805099)"><g><path d="M 7.609375 -19.828125 L 7.609375 0 L 1.40625 0 L 1.40625 -19.828125 Z M 7.609375 -19.828125 "/></g></g></g><g fill="#f7f7f7" fill-opacity="1"><g transform="translate(104.332622, 202.805099)"><g><path d="M 25.234375 -19.828125 L 25.234375 0 L 19.046875 0 L 19.046875 -9.890625 L 15.984375 0 L 10.671875 0 L 7.609375 -9.890625 L 7.609375 0 L 1.40625 0 L 1.40625 -19.828125 L 9.015625 -19.828125 L 13.390625 -7.921875 L 17.640625 -19.828125 Z M 25.234375 -19.828125 "/></g></g></g><g fill="#f7f7f7" fill-opacity="1"><g transform="translate(133.196994, 202.805099)"><g><path d="M 11.0625 0.203125 C 9.195312 0.203125 7.484375 -0.234375 5.921875 -1.109375 C 4.359375 -1.992188 3.117188 -3.207031 2.203125 -4.75 C 1.296875 -6.300781 0.84375 -8.050781 0.84375 -10 C 0.84375 -11.9375 1.296875 -13.679688 2.203125 -15.234375 C 3.117188 -16.785156 4.359375 -17.992188 5.921875 -18.859375 C 7.484375 -19.722656 9.195312 -20.15625 11.0625 -20.15625 C 12.925781 -20.15625 14.632812 -19.722656 16.1875 -18.859375 C 17.738281 -17.992188 18.960938 -16.785156 19.859375 -15.234375 C 20.765625 -13.679688 21.21875 -11.9375 21.21875 -10 C 21.21875 -8.050781 20.765625 -6.300781 19.859375 -4.75 C 18.960938 -3.207031 17.734375 -1.992188 16.171875 -1.109375 C 14.609375 -0.234375 12.90625 0.203125 11.0625 0.203125 Z M 11.0625 -5.59375 C 12.289062 -5.59375 13.238281 -5.988281 13.90625 -6.78125 C 14.582031 -7.582031 14.921875 -8.65625 14.921875 -10 C 14.921875 -11.363281 14.582031 -12.441406 13.90625 -13.234375 C 13.238281 -14.023438 12.289062 -14.421875 11.0625 -14.421875 C 9.8125 -14.421875 8.847656 -14.023438 8.171875 -13.234375 C 7.503906 -12.441406 7.171875 -11.363281 7.171875 -10 C 7.171875 -8.65625 7.503906 -7.582031 8.171875 -6.78125 C 8.847656 -5.988281 9.8125 -5.59375 11.0625 -5.59375 Z M 11.0625 -5.59375 "/></g></g></g><g fill="#f7f7f7" fill-opacity="1"><g transform="translate(157.497984, 202.805099)"><g><path d="M 20.40625 0 L 14.203125 0 L 7.609375 -9.96875 L 7.609375 0 L 1.40625 0 L 1.40625 -19.828125 L 7.609375 -19.828125 L 14.203125 -9.6875 L 14.203125 -19.828125 L 20.40625 -19.828125 Z M 20.40625 0 "/></g></g></g><g fill="#f7f7f7" fill-opacity="1"><g transform="translate(181.547009, 202.805099)"><g/></g></g><g fill="#f7f7f7" fill-opacity="1"><g transform="translate(188.546352, 202.805099)"><g><path d="M 16.96875 -19.828125 L 16.96875 -14.890625 L 11.703125 -14.890625 L 11.703125 0 L 5.484375 0 L 5.484375 -14.890625 L 0.28125 -14.890625 L 0.28125 -19.828125 Z M 16.96875 -19.828125 "/></g></g></g><g fill="#f7f7f7" fill-opacity="1"><g transform="translate(208.032, 202.805099)"><g><path d="M 14.109375 -3 L 7.5 -3 L 6.53125 0 L 0 0 L 7.25 -19.828125 L 14.421875 -19.828125 L 21.640625 0 L 15.09375 0 Z M 12.59375 -7.671875 L 10.8125 -13.1875 L 9.015625 -7.671875 Z M 12.59375 -7.671875 "/></g></g></g><g fill="#f7f7f7" fill-opacity="1"><g transform="translate(231.913048, 202.805099)"><g><path d="M 20.40625 0 L 14.203125 0 L 7.609375 -9.96875 L 7.609375 0 L 1.40625 0 L 1.40625 -19.828125 L 7.609375 -19.828125 L 14.203125 -9.6875 L 14.203125 -19.828125 L 20.40625 -19.828125 Z M 20.40625 0 "/></g></g></g><g fill="#f7f7f7" fill-opacity="1"><g transform="translate(255.962073, 202.805099)"><g><path d="M 20.40625 0 L 14.203125 0 L 7.609375 -9.96875 L 7.609375 0 L 1.40625 0 L 1.40625 -19.828125 L 7.609375 -19.828125 L 14.203125 -9.6875 L 14.203125 -19.828125 L 20.40625 -19.828125 Z M 20.40625 0 "/></g></g></g><g fill="#f7f7f7" fill-opacity="1"><g transform="translate(280.01111, 202.805099)"><g><path d="M 14.109375 -3 L 7.5 -3 L 6.53125 0 L 0 0 L 7.25 -19.828125 L 14.421875 -19.828125 L 21.640625 0 L 15.09375 0 Z M 12.59375 -7.671875 L 10.8125 -13.1875 L 9.015625 -7.671875 Z M 12.59375 -7.671875 "/></g></g></g><g fill="#ffffff" fill-opacity="1"><g transform="translate(109.388091, 228.302431)"><g><path d="M 4.269531 -2.351562 L 4.269531 -9.515625 L 3.289062 -9.515625 L 3.289062 -2.351562 C 3.289062 -1.75 3.050781 -1.328125 2.601562 -1.078125 C 2.226562 -0.855469 1.761719 -0.785156 1.21875 -0.855469 C 0.714844 -0.910156 0.320312 -1.050781 0.0703125 -1.273438 L 0.0703125 -0.195312 C 0.152344 -0.113281 0.320312 -0.0429688 0.574219 0.0273438 C 0.824219 0.0976562 1.105469 0.140625 1.414062 0.140625 C 2.167969 0.167969 2.800781 0.015625 3.304688 -0.335938 C 3.945312 -0.753906 4.269531 -1.425781 4.269531 -2.351562 Z M 4.269531 -2.351562 "/></g></g></g><g fill="#ffffff" fill-opacity="1"><g transform="translate(116.735245, 228.302431)"><g><path d="M 7.933594 -3.148438 L 7.933594 -9.515625 L 6.957031 -9.515625 L 6.957031 -3.007812 C 6.957031 -2.617188 6.886719 -2.296875 6.746094 -2.027344 C 6.339844 -1.246094 5.554688 -0.855469 4.394531 -0.855469 C 3.640625 -0.855469 3.035156 -1.023438 2.589844 -1.359375 C 2.070312 -1.734375 1.820312 -2.28125 1.820312 -3.007812 L 1.820312 -9.515625 L 0.839844 -9.515625 L 0.839844 -3.148438 C 0.839844 -2.113281 1.175781 -1.300781 1.847656 -0.714844 C 2.476562 -0.152344 3.332031 0.125 4.394531 0.125 C 5.445312 0.125 6.285156 -0.152344 6.925781 -0.714844 C 7.597656 -1.300781 7.933594 -2.113281 7.933594 -3.148438 Z M 7.933594 -3.148438 "/></g></g></g><g fill="#ffffff" fill-opacity="1"><g transform="translate(127.748342, 228.302431)"><g><path d="M 2.027344 -7.011719 L 7.375 0.585938 L 7.375 -9.515625 L 6.394531 -9.515625 L 6.394531 -2.519531 L 1.050781 -10.117188 L 1.050781 0 L 2.027344 0 Z M 2.027344 -7.011719 "/></g></g></g><g fill="#ffffff" fill-opacity="1"><g transform="translate(138.411639, 228.302431)"><g><path d="M 2.027344 0 L 2.027344 -9.515625 L 1.050781 -9.515625 L 1.050781 0 Z M 2.027344 0 "/></g></g></g><g fill="#ffffff" fill-opacity="1"><g transform="translate(143.729917, 228.302431)"><g><path d="M 9.433594 -4.785156 C 9.433594 -3.695312 9.039062 -2.769531 8.285156 -2.015625 C 7.515625 -1.246094 6.589844 -0.867188 5.515625 -0.867188 C 4.4375 -0.867188 3.511719 -1.246094 2.757812 -2.015625 C 1.988281 -2.769531 1.609375 -3.695312 1.609375 -4.785156 C 1.609375 -5.851562 1.988281 -6.773438 2.757812 -7.542969 C 3.511719 -8.300781 4.4375 -8.691406 5.515625 -8.691406 C 6.589844 -8.691406 7.515625 -8.300781 8.285156 -7.542969 C 9.039062 -6.773438 9.433594 -5.851562 9.433594 -4.785156 Z M 10.414062 -4.785156 C 10.414062 -5.457031 10.273438 -6.085938 10.019531 -6.691406 C 9.769531 -7.277344 9.417969 -7.796875 8.972656 -8.242188 C 8.523438 -8.675781 8.003906 -9.027344 7.417969 -9.277344 C 6.816406 -9.53125 6.1875 -9.671875 5.515625 -9.671875 C 4.84375 -9.671875 4.199219 -9.53125 3.609375 -9.277344 C 3.023438 -9.027344 2.503906 -8.675781 2.058594 -8.242188 C 1.609375 -7.796875 1.257812 -7.277344 1.007812 -6.691406 C 0.753906 -6.085938 0.628906 -5.457031 0.628906 -4.785156 C 0.628906 -4.113281 0.753906 -3.472656 1.007812 -2.882812 C 1.257812 -2.28125 1.609375 -1.761719 2.058594 -1.316406 C 2.503906 -0.867188 3.023438 -0.519531 3.609375 -0.265625 C 4.199219 -0.015625 4.84375 0.113281 5.515625 0.113281 C 6.1875 0.113281 6.816406 -0.015625 7.417969 -0.265625 C 8.003906 -0.519531 8.523438 -0.867188 8.972656 -1.316406 C 9.417969 -1.761719 9.769531 -2.28125 10.019531 -2.882812 C 10.273438 -3.472656 10.414062 -4.113281 10.414062 -4.785156 Z M 10.414062 -4.785156 "/></g></g></g><g fill="#ffffff" fill-opacity="1"><g transform="translate(157.009757, 228.302431)"><g><path d="M 2.027344 -4.703125 L 2.027344 -8.578125 L 4.242188 -8.578125 C 4.8125 -8.578125 5.277344 -8.398438 5.625 -8.03125 C 5.960938 -7.667969 6.144531 -7.222656 6.144531 -6.660156 C 6.144531 -6.101562 5.960938 -5.640625 5.597656 -5.261719 C 5.234375 -4.882812 4.785156 -4.703125 4.242188 -4.703125 Z M 7.125 -6.648438 C 7.125 -7.460938 6.816406 -8.160156 6.226562 -8.703125 C 5.652344 -9.238281 4.941406 -9.515625 4.101562 -9.515625 L 1.050781 -9.515625 L 1.050781 0 L 2.027344 0 L 2.027344 -3.765625 L 3.164062 -3.765625 L 5.960938 0 L 7.277344 0 L 4.339844 -3.765625 C 5.082031 -3.804688 5.710938 -4.074219 6.226562 -4.5625 C 6.816406 -5.109375 7.125 -5.808594 7.125 -6.648438 Z M 7.125 -6.648438 "/></g></g></g><g fill="#ffffff" fill-opacity="1"><g transform="translate(166.861506, 228.302431)"><g/></g></g><g fill="#ffffff" fill-opacity="1"><g transform="translate(172.879393, 228.302431)"><g><path d="M 6.703125 -8.605469 L 6.703125 -9.515625 L 1.050781 -9.515625 L 1.050781 0 L 2.027344 0 L 2.027344 -4.296875 L 6.5625 -4.296875 L 6.5625 -5.21875 L 2.027344 -5.21875 L 2.027344 -8.605469 Z M 6.703125 -8.605469 "/></g></g></g><g fill="#ffffff" fill-opacity="1"><g transform="translate(182.101488, 228.302431)"><g><path d="M 7.933594 -3.148438 L 7.933594 -9.515625 L 6.957031 -9.515625 L 6.957031 -3.007812 C 6.957031 -2.617188 6.886719 -2.296875 6.746094 -2.027344 C 6.339844 -1.246094 5.554688 -0.855469 4.394531 -0.855469 C 3.640625 -0.855469 3.035156 -1.023438 2.589844 -1.359375 C 2.070312 -1.734375 1.820312 -2.28125 1.820312 -3.007812 L 1.820312 -9.515625 L 0.839844 -9.515625 L 0.839844 -3.148438 C 0.839844 -2.113281 1.175781 -1.300781 1.847656 -0.714844 C 2.476562 -0.152344 3.332031 0.125 4.394531 0.125 C 5.445312 0.125 6.285156 -0.152344 6.925781 -0.714844 C 7.597656 -1.300781 7.933594 -2.113281 7.933594 -3.148438 Z M 7.933594 -3.148438 "/></g></g></g><g fill="#ffffff" fill-opacity="1"><g transform="translate(193.114583, 228.302431)"><g><path d="M 2.027344 -0.980469 L 2.027344 -9.515625 L 1.050781 -9.515625 L 1.050781 0 L 5.429688 0 L 5.429688 -0.980469 Z M 2.027344 -0.980469 "/></g></g></g><g fill="#ffffff" fill-opacity="1"><g transform="translate(201.063397, 228.302431)"><g><path d="M 2.027344 -0.980469 L 2.027344 -9.515625 L 1.050781 -9.515625 L 1.050781 0 L 5.429688 0 L 5.429688 -0.980469 Z M 2.027344 -0.980469 "/></g></g></g><g fill="#ffffff" fill-opacity="1"><g transform="translate(209.012211, 228.302431)"><g><path d="M 5.21875 -2.714844 L 5.21875 -3.511719 L 0.53125 -3.511719 L 0.53125 -2.714844 Z M 5.21875 -2.714844 "/></g></g></g><g fill="#ffffff" fill-opacity="1"><g transform="translate(216.989005, 228.302431)"><g><path d="M 3.679688 -4.476562 C 4.914062 -4.183594 5.75 -3.863281 6.199219 -3.5 C 6.507812 -3.246094 6.660156 -2.925781 6.660156 -2.53125 C 6.660156 -2.140625 6.578125 -1.820312 6.410156 -1.59375 C 5.988281 -1.007812 5.234375 -0.714844 4.171875 -0.714844 C 2.6875 -0.714844 1.847656 -1.21875 1.664062 -2.226562 L 0.519531 -2.226562 C 0.855469 -0.617188 2.070312 0.183594 4.171875 0.183594 C 5.109375 0.183594 5.890625 -0.015625 6.523438 -0.433594 C 7.277344 -0.921875 7.667969 -1.652344 7.667969 -2.601562 C 7.667969 -3.386719 7.363281 -3.988281 6.746094 -4.410156 C 6.3125 -4.714844 5.613281 -4.996094 4.644531 -5.25 C 3.667969 -5.5 3.035156 -5.710938 2.742188 -5.863281 C 2.097656 -6.1875 1.777344 -6.632812 1.792969 -7.222656 C 1.792969 -7.53125 1.847656 -7.796875 1.988281 -7.992188 C 2.351562 -8.535156 2.996094 -8.816406 3.917969 -8.816406 C 5.21875 -8.816406 5.960938 -8.398438 6.15625 -7.585938 L 7.222656 -7.585938 C 6.871094 -8.957031 5.765625 -9.65625 3.917969 -9.65625 C 3.078125 -9.65625 2.335938 -9.433594 1.722656 -8.984375 C 1.089844 -8.535156 0.769531 -7.878906 0.769531 -6.984375 C 0.769531 -5.765625 1.75 -4.925781 3.679688 -4.476562 Z M 3.679688 -4.476562 "/></g></g></g><g fill="#ffffff" fill-opacity="1"><g transform="translate(227.260523, 228.302431)"><g><path d="M 0.28125 -8.636719 L 2.589844 -8.636719 L 2.589844 -0.0273438 L 3.570312 -0.0273438 L 3.570312 -8.636719 L 5.878906 -8.636719 L 5.878906 -9.542969 L 0.28125 -9.542969 Z M 0.28125 -8.636719 "/></g></g></g><g fill="#ffffff" fill-opacity="1"><g transform="translate(235.657087, 228.302431)"><g><path d="M 2.589844 -3.5 L 4.324219 -7.878906 L 6.046875 -3.5 Z M 8.496094 0 L 4.324219 -10.175781 L 0.140625 0 L 1.203125 0 L 2.226562 -2.589844 L 6.410156 -2.589844 L 7.429688 0 Z M 8.496094 0 "/></g></g></g><g fill="#ffffff" fill-opacity="1"><g transform="translate(246.530267, 228.302431)"><g><path d="M 9.78125 -2.910156 L 8.703125 -2.910156 C 8.367188 -2.296875 7.90625 -1.792969 7.320312 -1.425781 C 6.730469 -1.050781 6.074219 -0.867188 5.375 -0.867188 C 4.324219 -0.867188 3.429688 -1.246094 2.6875 -2.027344 C 1.960938 -2.769531 1.609375 -3.679688 1.609375 -4.746094 C 1.609375 -5.808594 1.960938 -6.71875 2.6875 -7.472656 C 3.023438 -7.824219 3.429688 -8.101562 3.890625 -8.3125 C 4.339844 -8.523438 4.785156 -8.636719 5.234375 -8.636719 C 5.667969 -8.636719 6.046875 -8.578125 6.382812 -8.480469 C 7.402344 -8.171875 8.171875 -7.558594 8.691406 -6.621094 L 9.769531 -6.621094 C 9.40625 -7.515625 8.832031 -8.242188 8.03125 -8.804688 C 7.222656 -9.363281 6.339844 -9.640625 5.375 -9.640625 C 4.042969 -9.640625 2.925781 -9.152344 2 -8.1875 C 1.566406 -7.738281 1.230469 -7.207031 0.992188 -6.621094 C 0.742188 -6.03125 0.628906 -5.402344 0.628906 -4.746094 C 0.628906 -3.402344 1.078125 -2.265625 2 -1.316406 C 2.925781 -0.335938 4.042969 0.140625 5.375 0.140625 C 6.339844 0.140625 7.222656 -0.140625 8.046875 -0.699219 C 8.84375 -1.257812 9.417969 -1.988281 9.78125 -2.910156 Z M 9.78125 -2.910156 "/></g></g></g><g fill="#ffffff" fill-opacity="1"><g transform="translate(258.970566, 228.302431)"><g><path d="M 2.027344 0 L 2.027344 -4.464844 L 5.234375 0 L 6.492188 0 L 2.996094 -4.757812 L 6.492188 -9.515625 L 5.234375 -9.515625 L 2.027344 -5.039062 L 2.027344 -9.515625 L 1.050781 -9.515625 L 1.050781 0 Z M 2.027344 0 "/></g></g></g><g fill="#ffffff" fill-opacity="1"><g transform="translate(142.036526, 246.302429)"><g><path d="M 8.4375 -4.757812 C 8.4375 -5.445312 8.300781 -6.074219 8.046875 -6.660156 C 7.796875 -7.25 7.445312 -7.753906 7.011719 -8.171875 C 6.5625 -8.59375 6.046875 -8.914062 5.457031 -9.152344 C 4.855469 -9.390625 4.210938 -9.515625 3.539062 -9.515625 L 1.050781 -9.515625 L 1.050781 0 L 3.539062 0 C 4.210938 0 4.855469 -0.113281 5.457031 -0.351562 C 6.046875 -0.585938 6.5625 -0.921875 7.011719 -1.34375 C 7.445312 -1.761719 7.796875 -2.253906 8.046875 -2.839844 C 8.300781 -3.429688 8.4375 -4.058594 8.4375 -4.757812 Z M 7.488281 -4.757812 C 7.488281 -3.667969 7.09375 -2.757812 6.339844 -2.042969 C 5.585938 -1.328125 4.660156 -0.980469 3.570312 -0.980469 L 2.027344 -0.980469 L 2.027344 -8.535156 L 3.570312 -8.535156 C 4.660156 -8.535156 5.585938 -8.171875 6.339844 -7.472656 C 7.09375 -6.746094 7.488281 -5.835938 7.488281 -4.757812 Z M 7.488281 -4.757812 "/></g></g></g><g fill="#ffffff" fill-opacity="1"><g transform="translate(153.343462, 246.302429)"><g><path d="M 6.703125 0 L 6.703125 -0.910156 L 2.027344 -0.910156 L 2.027344 -4.296875 L 6.5625 -4.296875 L 6.5625 -5.21875 L 2.027344 -5.21875 L 2.027344 -8.605469 L 6.703125 -8.605469 L 6.703125 -9.515625 L 1.050781 -9.515625 L 1.050781 0 Z M 6.703125 0 "/></g></g></g><g fill="#ffffff" fill-opacity="1"><g transform="translate(163.33514, 246.302429)"><g><path d="M 4.464844 0.574219 L 8.773438 -9.515625 L 7.710938 -9.515625 L 4.464844 -1.847656 L 1.203125 -9.515625 L 0.140625 -9.515625 Z M 4.464844 0.574219 "/></g></g></g><g fill="#ffffff" fill-opacity="1"><g transform="translate(174.488163, 246.302429)"><g><path d="M 6.703125 0 L 6.703125 -0.910156 L 2.027344 -0.910156 L 2.027344 -4.296875 L 6.5625 -4.296875 L 6.5625 -5.21875 L 2.027344 -5.21875 L 2.027344 -8.605469 L 6.703125 -8.605469 L 6.703125 -9.515625 L 1.050781 -9.515625 L 1.050781 0 Z M 6.703125 0 "/></g></g></g><g fill="#ffffff" fill-opacity="1"><g transform="translate(184.479842, 246.302429)"><g><path d="M 2.027344 -0.980469 L 2.027344 -9.515625 L 1.050781 -9.515625 L 1.050781 0 L 5.429688 0 L 5.429688 -0.980469 Z M 2.027344 -0.980469 "/></g></g></g><g fill="#ffffff" fill-opacity="1"><g transform="translate(192.428658, 246.302429)"><g><path d="M 9.433594 -4.785156 C 9.433594 -3.695312 9.039062 -2.769531 8.285156 -2.015625 C 7.515625 -1.246094 6.589844 -0.867188 5.515625 -0.867188 C 4.4375 -0.867188 3.511719 -1.246094 2.757812 -2.015625 C 1.988281 -2.769531 1.609375 -3.695312 1.609375 -4.785156 C 1.609375 -5.851562 1.988281 -6.773438 2.757812 -7.542969 C 3.511719 -8.300781 4.4375 -8.691406 5.515625 -8.691406 C 6.589844 -8.691406 7.515625 -8.300781 8.285156 -7.542969 C 9.039062 -6.773438 9.433594 -5.851562 9.433594 -4.785156 Z M 10.414062 -4.785156 C 10.414062 -5.457031 10.273438 -6.085938 10.019531 -6.691406 C 9.769531 -7.277344 9.417969 -7.796875 8.972656 -8.242188 C 8.523438 -8.675781 8.003906 -9.027344 7.417969 -9.277344 C 6.816406 -9.53125 6.1875 -9.671875 5.515625 -9.671875 C 4.84375 -9.671875 4.199219 -9.53125 3.609375 -9.277344 C 3.023438 -9.027344 2.503906 -8.675781 2.058594 -8.242188 C 1.609375 -7.796875 1.257812 -7.277344 1.007812 -6.691406 C 0.753906 -6.085938 0.628906 -5.457031 0.628906 -4.785156 C 0.628906 -4.113281 0.753906 -3.472656 1.007812 -2.882812 C 1.257812 -2.28125 1.609375 -1.761719 2.058594 -1.316406 C 2.503906 -0.867188 3.023438 -0.519531 3.609375 -0.265625 C 4.199219 -0.015625 4.84375 0.113281 5.515625 0.113281 C 6.1875 0.113281 6.816406 -0.015625 7.417969 -0.265625 C 8.003906 -0.519531 8.523438 -0.867188 8.972656 -1.316406 C 9.417969 -1.761719 9.769531 -2.28125 10.019531 -2.882812 C 10.273438 -3.472656 10.414062 -4.113281 10.414062 -4.785156 Z M 10.414062 -4.785156 "/></g></g></g><g fill="#ffffff" fill-opacity="1"><g transform="translate(205.708496, 246.302429)"><g><path d="M 2.027344 -4.714844 L 2.027344 -8.578125 L 4.242188 -8.578125 C 4.8125 -8.578125 5.277344 -8.398438 5.625 -8.046875 C 5.960938 -7.683594 6.144531 -7.234375 6.144531 -6.675781 C 6.144531 -6.101562 5.960938 -5.640625 5.597656 -5.261719 C 5.234375 -4.898438 4.785156 -4.714844 4.242188 -4.714844 Z M 7.125 -6.648438 C 7.125 -7.488281 6.816406 -8.171875 6.226562 -8.71875 C 5.640625 -9.25 4.941406 -9.515625 4.101562 -9.515625 L 1.050781 -9.515625 L 1.050781 0 L 2.027344 0 L 2.027344 -3.765625 L 4.101562 -3.765625 C 4.941406 -3.765625 5.652344 -4.03125 6.226562 -4.5625 C 6.816406 -5.121094 7.125 -5.808594 7.125 -6.648438 Z M 7.125 -6.648438 "/></g></g></g><g fill="#ffffff" fill-opacity="1"><g transform="translate(215.35036, 246.302429)"><g><path d="M 6.703125 0 L 6.703125 -0.910156 L 2.027344 -0.910156 L 2.027344 -4.296875 L 6.5625 -4.296875 L 6.5625 -5.21875 L 2.027344 -5.21875 L 2.027344 -8.605469 L 6.703125 -8.605469 L 6.703125 -9.515625 L 1.050781 -9.515625 L 1.050781 0 Z M 6.703125 0 "/></g></g></g><g fill="#ffffff" fill-opacity="1"><g transform="translate(225.342036, 246.302429)"><g><path d="M 2.027344 -4.703125 L 2.027344 -8.578125 L 4.242188 -8.578125 C 4.8125 -8.578125 5.277344 -8.398438 5.625 -8.03125 C 5.960938 -7.667969 6.144531 -7.222656 6.144531 -6.660156 C 6.144531 -6.101562 5.960938 -5.640625 5.597656 -5.261719 C 5.234375 -4.882812 4.785156 -4.703125 4.242188 -4.703125 Z M 7.125 -6.648438 C 7.125 -7.460938 6.816406 -8.160156 6.226562 -8.703125 C 5.652344 -9.238281 4.941406 -9.515625 4.101562 -9.515625 L 1.050781 -9.515625 L 1.050781 0 L 2.027344 0 L 2.027344 -3.765625 L 3.164062 -3.765625 L 5.960938 0 L 7.277344 0 L 4.339844 -3.765625 C 5.082031 -3.804688 5.710938 -4.074219 6.226562 -4.5625 C 6.816406 -5.109375 7.125 -5.808594 7.125 -6.648438 Z M 7.125 -6.648438 "/></g></g></g></svg>